<?xml version="1.0" standalone="no"?>
<!DOCTYPE svg PUBLIC "-//W3C//DTD SVG 20010904//EN"
 "http://www.w3.org/TR/2001/REC-SVG-20010904/DTD/svg10.dtd">
<svg version="1.0" xmlns="http://www.w3.org/2000/svg"
 width="328.000000pt" height="328.000000pt" viewBox="0 0 328.000000 328.000000"
 preserveAspectRatio="xMidYMid meet">
<metadata>
Created by potrace 1.11, written by Peter Selinger 2001-2013
</metadata>
<g transform="translate(0.000000,328.000000) scale(0.100000,-0.100000)"
fill="#000000" stroke="none">
<path d="M0 1640 l0 -1640 1640 0 1640 0 0 1640 0 1640 -1640 0 -1640 0 0
-1640z m2155 1431 c119 -42 247 -152 334 -285 33 -50 49 -66 67 -66 13 0 48
-9 79 -21 81 -30 151 -103 205 -211 37 -74 44 -99 48 -165 l4 -78 72 -75 c83
-86 124 -153 160 -260 71 -212 49 -434 -59 -601 -40 -62 -43 -70 -34 -106 19
-79 22 -274 5 -353 -45 -210 -194 -361 -421 -426 -33 -9 -78 -29 -100 -44
-167 -114 -396 -178 -600 -167 -113 5 -141 16 -172 64 -17 26 -18 102 -18
1333 l0 1305 30 54 c54 98 128 134 260 127 45 -3 106 -13 140 -25z m-627 -20
c46 -23 67 -46 87 -94 13 -32 15 -187 15 -1314 0 -1227 -1 -1280 -19 -1319
-10 -23 -36 -54 -57 -70 l-37 -29 -253 -3 c-220 -3 -257 -1 -285 14 -18 9
-167 124 -332 256 -293 235 -301 241 -375 261 -59 16 -83 28 -113 58 -58 58
-61 85 -57 559 3 394 4 417 23 448 11 19 112 115 225 214 113 99 212 189 220
201 11 16 16 62 20 192 5 167 6 173 32 207 17 22 134 105 320 225 161 105 302
195 313 201 11 6 69 12 128 12 86 0 115 -4 145 -19z"/>
<path d="M1905 2996 c-68 -31 -96 -92 -91 -207 2 -58 6 -73 25 -92 13 -12 21
-16 17 -9 -4 6 -2 12 4 12 6 0 8 -10 4 -24 -4 -16 0 -34 10 -48 9 -12 16 -29
16 -38 -1 -8 -8 1 -16 20 l-15 35 -19 -25 c-11 -14 -20 -30 -20 -36 0 -5 37
-14 84 -20 l83 -9 6 95 c6 107 11 126 39 141 14 8 25 6 44 -6 23 -15 24 -19
17 -73 -10 -73 -10 -159 0 -196 l8 -30 20 30 c10 16 19 34 19 39 -1 6 -8 -3
-17 -20 l-17 -30 -8 48 c-5 27 -5 72 -1 102 l8 53 45 -22 c30 -15 53 -20 70
-15 35 10 50 10 50 2 0 -5 -14 -9 -31 -10 -42 -3 -45 -8 -24 -39 l18 -27 13
24 c7 13 13 20 13 14 0 -28 -26 -50 -61 -51 -36 -1 -38 1 -59 52 -25 61 -38
65 -18 7 7 -21 14 -45 15 -53 2 -8 8 -16 14 -18 6 -2 17 -17 26 -33 8 -16 19
-27 23 -24 5 3 7 -3 4 -13 -4 -15 1 -18 30 -14 20 2 44 -1 54 -6 14 -8 23 -6
41 11 18 17 22 18 16 4 -3 -9 -10 -17 -15 -17 -4 0 -6 -7 -3 -15 4 -9 24 20
53 78 26 50 53 101 60 113 12 18 10 26 -21 75 -48 75 -139 171 -198 209 -97
62 -243 88 -315 56z m65 -189 c0 -2 -12 -14 -27 -28 l-28 -24 24 28 c23 25 31
32 31 24z m-88 -79 c-3 -12 -7 -17 -10 -10 -5 16 -29 16 -35 0 -3 -8 -6 -7 -6
4 -1 10 8 18 22 21 12 2 25 5 29 6 3 0 4 -9 0 -21z m96 -91 c-1 -1 -19 -15
-38 -32 l-34 -30 34 40 c19 22 37 37 39 32 1 -4 1 -9 -1 -10z m-35 6 c-7 -2
-19 -2 -25 0 -7 3 -2 5 12 5 14 0 19 -2 13 -5z m-33 -38 c0 -5 -5 -3 -10 5 -5
8 -10 20 -10 25 0 6 5 3 10 -5 5 -8 10 -19 10 -25z m447 -37 c-3 -8 -6 -5 -6
6 -1 11 2 17 5 13 3 -3 4 -12 1 -19z m-130 -4 c-3 -3 -12 -4 -19 -1 -8 3 -5 6
6 6 11 1 17 -2 13 -5z m123 -27 c0 -2 -10 -12 -22 -23 l-23 -19 19 23 c18 21
26 27 26 19z"/>
<path d="M2166 2634 c-10 -38 0 -41 12 -5 6 17 7 31 3 31 -5 0 -12 -12 -15
-26z"/>
<path d="M2531 2608 c-38 -61 -92 -183 -111 -249 -21 -77 -26 -202 -9 -249 6
-18 7 -13 3 18 -6 40 -5 43 13 33 10 -5 39 -19 64 -29 33 -14 56 -33 79 -67
l32 -46 -39 5 c-37 6 -37 5 6 -7 l44 -12 -41 -27 c-28 -19 -42 -24 -45 -15 -3
7 -6 2 -6 -11 l-1 -23 33 24 c60 45 70 48 123 30 27 -9 51 -17 53 -19 2 -2 -8
-13 -23 -25 -14 -11 -24 -24 -21 -29 3 -4 -3 -14 -12 -21 -12 -10 -14 -10 -9
-1 4 6 3 12 -3 12 -5 0 -13 -5 -17 -11 -4 -8 -9 -7 -15 2 -7 11 -9 10 -9 -3 0
-12 8 -18 24 -18 14 0 36 -4 51 -10 25 -9 27 -7 50 44 57 130 77 389 36 495
-41 110 -104 187 -177 217 -45 19 -57 18 -73 -8z m-9 -106 c14 -6 9 -12 -23
-30 l-40 -23 16 30 c16 32 19 34 47 23z m73 -136 c29 -12 35 -20 34 -43 -1
-18 -3 -22 -6 -10 -4 18 -6 18 -24 1 -10 -9 -16 -21 -12 -27 3 -5 1 -7 -4 -4
-6 4 -16 0 -23 -8 -11 -13 -8 -15 16 -16 25 -1 26 -2 7 -7 l-21 -7 23 -17 c22
-17 23 -17 29 8 4 15 9 24 12 22 2 -3 -1 -19 -7 -35 l-10 -31 -37 34 -37 33
45 46 c53 54 42 61 -12 8 l-38 -37 6 34 c4 19 10 39 14 43 4 5 5 -4 2 -20 l-5
-28 27 24 26 25 -27 12 c-40 18 -19 17 22 0z m-86 -112 c-5 -26 -24 -53 -43
-62 -20 -10 -20 -11 -1 -12 11 0 28 -11 37 -24 l18 -24 -43 16 c-23 8 -48 20
-54 25 -12 9 -19 98 -8 109 8 8 96 -17 94 -28z m158 -148 c4 -4 -41 -86 -47
-85 -3 0 -22 22 -42 48 l-36 49 61 -5 c34 -2 63 -5 64 -7z m23 -69 c-23 -10
-44 -17 -46 -14 -3 2 5 21 17 41 l22 37 24 -23 25 -23 -42 -18z m49 -120 c0
-9 -2 -8 -6 1 -2 6 -10 9 -15 6 -7 -4 -8 -2 -4 5 9 13 26 5 25 -12z"/>
<path d="M1991 2494 c0 -11 3 -14 6 -6 3 7 2 16 -1 19 -3 4 -6 -2 -5 -13z"/>
<path d="M2155 2410 c10 -11 20 -20 23 -20 3 0 -3 9 -13 20 -10 11 -20 20 -23
20 -3 0 3 -9 13 -20z"/>
<path d="M2311 2394 c0 -11 3 -14 6 -6 3 7 2 16 -1 19 -3 4 -6 -2 -5 -13z"/>
<path d="M2197 2379 c7 -7 15 -10 18 -7 3 3 -2 9 -12 12 -14 6 -15 5 -6 -5z"/>
<path d="M2900 2088 c0 -47 -42 -194 -73 -257 -17 -36 -56 -92 -86 -125 -47
-53 -49 -55 -10 -18 25 23 51 42 58 42 7 0 11 6 8 13 -2 6 5 26 16 42 11 17
21 31 22 33 1 1 10 -1 20 -4 16 -6 14 -11 -16 -37 l-34 -29 37 26 c38 27 64
34 52 14 -4 -7 -3 -8 5 -4 6 4 28 -3 48 -15 l37 -23 -34 -10 c-19 -5 -37 -11
-39 -12 -2 -2 12 -24 30 -51 19 -26 35 -50 36 -52 2 -2 6 -1 10 3 4 4 3 10 -3
14 -5 4 -22 23 -37 43 l-27 36 39 11 c51 16 98 6 105 -22 3 -11 3 6 2 39 -5
82 -48 204 -100 285 -51 78 -66 91 -66 58z m102 -217 l32 -29 -50 -6 c-27 -4
-56 -12 -64 -18 -15 -10 2 -8 80 8 l29 6 -16 -41 -16 -41 -36 22 c-65 38 -66
41 -34 86 15 23 31 41 35 42 4 0 22 -13 40 -29z m-132 -15 c0 -8 3 -22 7 -31
5 -15 3 -16 -15 -6 -14 7 -19 17 -15 31 6 23 23 27 23 6z m177 -68 c-3 -8 -6
-5 -6 6 -1 11 2 17 5 13 3 -3 4 -12 1 -19z"/>
<path d="M2440 2001 c0 -6 4 -13 10 -16 6 -3 7 1 4 9 -7 18 -14 21 -14 7z"/>
<path d="M2587 1899 c7 -7 15 -10 18 -7 3 3 -2 9 -12 12 -14 6 -15 5 -6 -5z"/>
<path d="M2530 1851 c0 -6 4 -13 10 -16 6 -3 7 1 4 9 -7 18 -14 21 -14 7z"/>
<path d="M2666 1792 c-36 -42 -36 -44 -7 -17 28 25 58 66 49 65 -2 -1 -21 -22
-42 -48z"/>
<path d="M2901 1754 c0 -11 3 -14 6 -6 3 7 2 16 -1 19 -3 4 -6 -2 -5 -13z"/>
<path d="M2535 1700 c-3 -6 1 -7 9 -4 18 7 21 14 7 14 -6 0 -13 -4 -16 -10z"/>
<path d="M2981 1684 c0 -11 3 -14 6 -6 3 7 2 16 -1 19 -3 4 -6 -2 -5 -13z"/>
<path d="M3063 1595 c0 -27 2 -38 4 -22 2 15 2 37 0 50 -2 12 -4 0 -4 -28z"/>
<path d="M3030 1544 c0 -3 7 -12 15 -20 13 -13 15 -13 15 -1 0 8 -7 17 -15 21
-8 3 -15 3 -15 0z"/>
<path d="M1825 1440 c-3 -6 1 -7 9 -4 18 7 21 14 7 14 -6 0 -13 -4 -16 -10z"/>
<path d="M3016 1425 c-9 -26 -7 -32 5 -12 6 10 9 21 6 23 -2 3 -7 -2 -11 -11z"/>
<path d="M1961 1374 c0 -11 3 -14 6 -6 3 7 2 16 -1 19 -3 4 -6 -2 -5 -13z"/>
<path d="M1823 1320 c0 -36 2 -50 4 -32 2 17 2 47 0 65 -2 17 -4 3 -4 -33z"/>
<path d="M2073 1290 c0 -30 2 -43 4 -27 2 15 2 39 0 55 -2 15 -4 2 -4 -28z"/>
<path d="M2491 1324 c0 -11 3 -14 6 -6 3 7 2 16 -1 19 -3 4 -6 -2 -5 -13z"/>
<path d="M2950 1315 c-7 -9 -11 -17 -9 -20 3 -2 10 5 17 15 14 24 10 26 -8 5z"/>
<path d="M1962 1210 c0 -14 2 -19 5 -12 2 6 2 18 0 25 -3 6 -5 1 -5 -13z"/>
<path d="M1821 1165 c-5 -296 1 -841 10 -850 6 -6 63 -10 142 -9 157 2 246 22
376 87 83 41 86 43 89 79 4 53 -28 79 -136 113 -211 65 -266 95 -301 168 -26
53 -29 152 -5 185 18 26 56 29 75 6 7 -9 13 -42 13 -78 1 -39 6 -69 15 -80 39
-46 221 -107 260 -87 12 7 19 16 16 21 -3 6 0 8 7 5 7 -2 29 9 48 25 l35 29
-23 21 c-16 16 -21 28 -16 43 14 46 14 51 -1 19 -9 -18 -12 -38 -9 -44 4 -7 3
-8 -4 -4 -6 4 -21 2 -32 -4 -17 -9 -27 -8 -45 4 -34 23 -40 51 -17 89 11 17
23 43 26 57 6 20 5 22 -4 8 -6 -9 -16 -15 -24 -12 -9 3 -12 -3 -9 -23 2 -15
-1 -34 -6 -42 -15 -22 -74 21 -96 69 -16 35 -17 50 -9 101 6 32 6 59 2 59 -4
0 -8 -3 -9 -7 0 -5 -2 -17 -4 -28 -3 -11 -5 -34 -7 -51 l-2 -32 -46 14 c-43
13 -50 12 -89 -7 -24 -11 -44 -19 -46 -17 -7 7 8 88 16 88 5 0 0 9 -11 20 -11
11 -20 29 -20 39 0 11 -4 22 -9 25 -5 4 -7 -3 -4 -15 4 -12 0 -25 -8 -30 -11
-7 -10 -9 4 -9 22 0 22 -13 -1 -34 -18 -15 -20 -14 -38 20 -18 33 -22 35 -56
31 -37 -5 -38 -4 -38 26 l0 30 27 -24 28 -24 -20 25 c-11 14 -23 27 -26 30 -3
3 -9 12 -12 20 -3 8 -6 -12 -6 -45z m242 -174 c-3 -12 -16 -21 -34 -23 -43 -7
-44 3 -2 23 21 9 39 18 40 18 0 1 -1 -8 -4 -18z"/>
<path d="M1922 1195 c4 -4 3 -16 -3 -26 -5 -11 -7 -19 -5 -19 3 0 10 9 16 19
7 15 7 22 -2 27 -7 4 -10 4 -6 -1z"/>
<path d="M2081 1174 c0 -11 3 -14 6 -6 3 7 2 16 -1 19 -3 4 -6 -2 -5 -13z"/>
<path d="M2087 1128 c-4 -15 -19 -33 -33 -41 l-25 -13 23 -20 c17 -14 19 -15
9 -2 -11 15 -9 20 14 41 17 14 26 30 23 42 -3 17 -5 15 -11 -7z"/>
<path d="M1925 1120 c-3 -5 -1 -10 4 -10 6 0 11 5 11 10 0 6 -2 10 -4 10 -3 0
-8 -4 -11 -10z"/>
<path d="M2491 1095 c-1 -11 -4 -31 -6 -45 l-6 -25 11 25 c6 13 9 33 7 45 -4
19 -4 19 -6 0z"/>
<path d="M2130 1060 c-19 -16 -30 -29 -25 -29 6 0 26 13 45 29 19 17 30 30 25
30 -6 0 -26 -14 -45 -30z"/>
<path d="M2371 1074 c0 -11 3 -14 6 -6 3 7 2 16 -1 19 -3 4 -6 -2 -5 -13z"/>
<path d="M2537 943 c-4 -3 -7 -13 -7 -22 1 -13 3 -13 11 2 11 19 8 33 -4 20z"/>
<path d="M2510 870 c-7 -18 -24 -38 -36 -47 -22 -14 -25 -41 -3 -28 13 9 62
95 57 101 -3 2 -11 -9 -18 -26z"/>
<path d="M2941 874 c0 -11 3 -14 6 -6 3 7 2 16 -1 19 -3 4 -6 -2 -5 -13z"/>
<path d="M2595 787 c-10 -18 -45 -60 -78 -94 l-59 -61 26 -17 c14 -9 35 -38
47 -63 12 -26 23 -48 24 -50 1 -1 35 9 76 24 83 30 139 62 187 108 35 32 92
109 92 123 0 4 -16 -16 -35 -44 -26 -39 -40 -51 -53 -47 -12 4 -13 3 -4 -3 13
-10 -8 -35 -61 -68 -34 -22 -39 -18 -31 24 5 21 11 30 20 27 11 -4 11 -2 1 15
-11 18 -13 16 -25 -23 -7 -24 -10 -49 -7 -55 2 -7 3 -13 1 -13 -5 0 -66 107
-66 115 0 2 12 0 26 -5 14 -6 31 -10 37 -9 7 0 -6 7 -28 15 -55 21 -57 21 -60
4 -1 -8 -8 -34 -14 -58 l-12 -43 -30 18 c-48 29 -52 84 -7 103 13 5 17 9 10 9
-8 1 -1 18 18 47 18 25 30 47 28 49 -2 3 -13 -10 -23 -28z"/>
<path d="M2701 774 c0 -11 3 -14 6 -6 3 7 2 16 -1 19 -3 4 -6 -2 -5 -13z"/>
<path d="M2572 669 c-18 -12 -31 -23 -29 -26 5 -4 77 36 77 43 0 9 -16 3 -48
-17z"/>
<path d="M2768 663 c7 -3 16 -2 19 1 4 3 -2 6 -13 5 -11 0 -14 -3 -6 -6z"/>
<path d="M1012 2796 c-155 -100 -293 -193 -306 -205 -23 -22 -24 -29 -28 -189
-3 -146 -6 -171 -23 -202 -12 -19 -115 -118 -230 -220 -115 -102 -215 -197
-222 -210 -19 -38 -19 -840 0 -840 8 0 74 18 147 40 73 22 135 40 137 40 2 0
3 32 3 72 0 68 -2 74 -32 106 -29 29 -33 40 -33 87 0 48 4 58 33 87 29 29 39
33 87 33 48 0 58 -4 87 -33 29 -29 33 -39 33 -88 0 -50 -3 -59 -32 -85 -33
-28 -33 -30 -33 -121 0 -134 -2 -136 -145 -181 -66 -21 -127 -41 -135 -44 -9
-3 2 -10 27 -18 30 -9 130 -82 336 -247 161 -129 304 -242 317 -250 20 -13 66
-17 235 -21 115 -2 224 0 242 5 60 16 63 32 63 363 l0 295 -90 0 -90 0 0 -176
c0 -96 -4 -184 -10 -194 -13 -25 -62 -40 -130 -40 -50 0 -62 -4 -89 -29 -105
-98 -262 21 -196 149 18 35 66 62 110 62 37 0 90 -25 103 -48 6 -11 24 -17 56
-18 l46 -1 0 148 0 147 -98 0 c-153 0 -142 -24 -142 311 l0 279 -164 0 -164 0
-17 -26 c-9 -14 -33 -32 -52 -41 -112 -46 -215 93 -137 186 45 54 135 59 179
11 17 -18 31 -20 187 -20 l169 0 -2 95 c-3 125 5 135 108 135 l73 0 0 105 0
105 -160 0 c-88 0 -160 -3 -160 -6 0 -3 13 -17 30 -30 79 -67 29 -194 -77
-194 -38 0 -50 5 -79 34 -26 26 -34 42 -34 70 0 39 24 96 40 96 6 0 10 20 10
45 0 35 6 52 25 70 23 24 29 25 160 25 l135 0 0 127 c0 123 -1 128 -26 154
-56 58 -33 153 44 186 32 13 42 14 77 2 83 -29 109 -127 51 -188 -25 -26 -26
-31 -26 -154 l0 -127 25 0 c14 0 37 -11 50 -25 24 -23 25 -29 25 -160 l0 -135
120 0 120 0 0 511 0 511 -29 29 c-28 28 -33 29 -123 29 l-93 0 -283 -184z"/>
<path d="M1080 1435 l0 -385 227 0 228 0 -3 67 -3 68 -136 0 -135 0 -24 28
c-24 28 -24 31 -24 226 l0 198 26 27 c26 26 29 26 163 26 l136 0 -3 65 -4 65
-223 0 -224 0 -1 -385z"/>
</g>
</svg>
